<svg xmlns="http://www.w3.org/2000/svg" viewBox="0 0 603 182" fill="none">
  <path d="M374.1 36.5c-15.8 0-28.8 12.9-28.8 28.8s12.9 28.8 28.8 28.8 28.8-12.9 28.8-28.8-12.9-28.8-28.8-28.8zm0 50.8c-12.1 0-22-9.9-22-22s9.9-22 22-22 22 9.9 22 22-9.9 22-22 22z" fill="#FF9900"/>
  <path d="M26.7 130.7c-7.5 0-13.6-6.1-13.6-13.6V65.3c0-7.5 6.1-13.6 13.6-13.6h51.8c7.5 0 13.6 6.1 13.6 13.6v51.8c0 7.5-6.1 13.6-13.6 13.6H26.7z" fill="#FF9900"/>
  <path d="M78.5 58.5H26.7c-3.8 0-6.8 3.1-6.8 6.8v51.8c0 3.8 3.1 6.8 6.8 6.8h51.8c3.8 0 6.8-3.1 6.8-6.8V65.3c0-3.7-3.1-6.8-6.8-6.8zm-25.9 58.8c-12.1 0-22-9.9-22-22s9.9-22 22-22 22 9.9 22 22-9.9 22-22 22z" fill="#FF9900"/>
  <path d="M374.1 130.7c-15.8 0-28.8-12.9-28.8-28.8V65.3c0-15.8 12.9-28.8 28.8-28.8h51.8c15.8 0 28.8 12.9 28.8 28.8v36.6c0 15.8-12.9 28.8-28.8 28.8h-51.8z" fill="#FF9900"/>
  <path d="M425.9 43.3h-51.8c-12.1 0-22 9.9-22 22v36.6c0 12.1 9.9 22 22 22h51.8c12.1 0 22-9.9 22-22V65.3c0-12.1-9.9-22-22-22zm-25.9 50.8c-12.1 0-22-9.9-22-22s9.9-22 22-22 22 9.9 22 22-9.9 22-22 22z" fill="#FF9900"/>
  <path d="M52.6 36.5c-15.8 0-28.8 12.9-28.8 28.8s12.9 28.8 28.8 28.8 28.8-12.9 28.8-28.8-12.9-28.8-28.8-28.8zm0 50.8c-12.1 0-22-9.9-22-22s9.9-22 22-22 22 9.9 22 22-9.9 22-22 22z" fill="#FF9900"/>
  <path d="M213.4 65.3c0-15.8-12.9-28.8-28.8-28.8h-51.8c-15.8 0-28.8 12.9-28.8 28.8v36.6c0 15.8 12.9 28.8 28.8 28.8h51.8c15.8 0 28.8-12.9 28.8-28.8V65.3z" fill="#FF9900"/>
  <path d="M184.6 43.3h-51.8c-12.1 0-22 9.9-22 22v36.6c0 12.1 9.9 22 22 22h51.8c12.1 0 22-9.9 22-22V65.3c0-12.1-9.9-22-22-22zm-25.9 50.8c-12.1 0-22-9.9-22-22s9.9-22 22-22 22 9.9 22 22-9.9 22-22 22z" fill="#FF9900"/>
  <path d="M158.7 36.5c-15.8 0-28.8 12.9-28.8 28.8s12.9 28.8 28.8 28.8 28.8-12.9 28.8-28.8-12.9-28.8-28.8-28.8zm0 50.8c-12.1 0-22-9.9-22-22s9.9-22 22-22 22 9.9 22 22-9.9 22-22 22z" fill="#FF9900"/>
  <path d="M268.1 36.5c-15.8 0-28.8 12.9-28.8 28.8s12.9 28.8 28.8 28.8 28.8-12.9 28.8-28.8-12.9-28.8-28.8-28.8zm0 50.8c-12.1 0-22-9.9-22-22s9.9-22 22-22 22 9.9 22 22-9.9 22-22 22z" fill="#FF9900"/>
  <path d="M319.9 130.7c-15.8 0-28.8-12.9-28.8-28.8V65.3c0-15.8 12.9-28.8 28.8-28.8h51.8c15.8 0 28.8 12.9 28.8 28.8v36.6c0 15.8-12.9 28.8-28.8 28.8h-51.8z" fill="#FF9900"/>
  <path d="M371.7 43.3h-51.8c-12.1 0-22 9.9-22 22v36.6c0 12.1 9.9 22 22 22h51.8c12.1 0 22-9.9 22-22V65.3c0-12.1-9.9-22-22-22zm-25.9 50.8c-12.1 0-22-9.9-22-22s9.9-22 22-22 22 9.9 22 22-9.9 22-22 22z" fill="#FF9900"/>
  <path d="M535.3 36.5c-15.8 0-28.8 12.9-28.8 28.8s12.9 28.8 28.8 28.8 28.8-12.9 28.8-28.8-12.9-28.8-28.8-28.8zm0 50.8c-12.1 0-22-9.9-22-22s9.9-22 22-22 22 9.9 22 22-9.9 22-22 22z" fill="#FF9900"/>
</svg>
