<svg xmlns="http://www.w3.org/2000/svg" viewBox="0 0 60 38" fill="none">
  <rect width="60" height="38" rx="4" fill="#006FCF"/>
  <path d="M18.5 12.5h-3.8l-2.4 11.8c-.1.4.2.7.6.7h2.2c.3 0 .5-.2.6-.5l.6-3.8c.1-.4.4-.7.8-.7h1.8c3.7 0 5.8-1.8 6.4-5.3.3-1.5 0-2.7-.8-3.5-.9-.9-2.4-1.3-4.4-1.3-.1 0-.1 0 0 0zm.6 5.2c-.3 2-1.9 2-3.4 2h-.9l.6-3.8c0-.2.2-.4.5-.4h.4c1 0 2 0 2.5.6.3.3.4.8.3 1.6zm17.4-.1h-2.2c-.3 0-.5.2-.5.4l-.1.7-.2-.3c-.6-.9-2-1.2-3.4-1.2-3.2 0-5.9 2.4-6.4 5.8-.3 1.7.1 3.3 1.1 4.4 1 1 2.3 1.4 3.9 1.4 2.7 0 4.2-1.7 4.2-1.7l-.1.7c-.1.3.2.6.5.6h2c.3 0 .6-.3.6-.6l1.2-7.6c.1-.4-.2-.6-.6-.6zm-3.3 5.1c-.3 1.6-1.6 2.7-3.2 2.7-.8 0-1.5-.3-1.9-.8-.4-.5-.6-1.2-.5-2 .3-1.6 1.6-2.7 3.2-2.7.8 0 1.4.3 1.9.8.4.5.6 1.2.5 2zm8.3-5.1h-2.2c-.3 0-.5.1-.7.4l-3.9 5.8-1.7-5.5c-.1-.3-.4-.6-.7-.6h-2.1c-.4 0-.6.4-.5.7l3.1 9.1-2.9 4.1c-.3.4 0 .9.4.9h2.2c.3 0 .5-.1.7-.4l9.5-13.7c.3-.3 0-.8-.4-.8z" fill="white"/>
</svg>
