<svg xmlns="http://www.w3.org/2000/svg" viewBox="0 0 60 25" fill="none">
  <rect width="60" height="25" rx="4" fill="#635BFF"/>
  <path d="M13.3 11.5c0-.9-.6-1.3-1.7-1.3h-1.1v2.7h1.1c1.1 0 1.7-.5 1.7-1.4zm-1.8 3.8h-1.1v2.9H8.7V8.8h2.8c2.3 0 3.6 1.1 3.6 2.8 0 1.2-.7 2.1-1.8 2.5l2 4.1h-1.9l-1.9-4.1zm7.8-1.8v-1.4h-2.2V8.8h-1.7v9.4h1.7v-4.2h2.2v4.2h1.7V8.8h-1.7v3.5zm4.2-3.5h-1.7v9.4h1.7V8.8zm5.4 0h-2.9v9.4h2.9c2.5 0 4.1-1.7 4.1-4.7s-1.6-4.7-4.1-4.7zm0 8h-1.2v-6.6h1.2c1.6 0 2.5 1.1 2.5 3.3s-.9 3.3-2.5 3.3zm8.8-8h-4.4v9.4h4.4v-1.4h-2.7v-2.5h2.5v-1.4h-2.5v-2.7h2.7V8.8zm7.6 4.7c0-2.8-1.7-4.7-4.1-4.7h-2.9v9.4h2.9c2.4 0 4.1-1.9 4.1-4.7zm-4.1 3.3h-1.2v-6.6h1.2c1.6 0 2.5 1.1 2.5 3.3s-.9 3.3-2.5 3.3z" fill="white"/>
</svg>
