<svg xmlns="http://www.w3.org/2000/svg" viewBox="0 0 60 38" fill="none">
  <rect width="60" height="38" rx="4" fill="#1A1F71"/>
  <path d="M22.5 26.5l1.8-11.3h2.9l-1.8 11.3h-2.9zm13.2-11c-.6-.2-1.5-.5-2.6-.5-2.9 0-4.9 1.5-4.9 3.7 0 1.6 1.5 2.5 2.6 3 1.2.5 1.6.8 1.6 1.3 0 .7-.9 1.1-1.7 1.1-1.1 0-1.7-.2-2.7-.6l-.4-.2-.4 2.4c.7.3 2 .6 3.3.6 3.1 0 5.1-1.5 5.1-3.8 0-1.2-.8-2.2-2.5-2.9-1-.5-1.6-.8-1.6-1.3 0-.4.5-1 1.5-1 .9 0 1.5.2 2 .4l.2.1.4-2.3zm5.8 7.2c.2-.6 1.2-3.2 1.2-3.2l.3-.8.2.8s.5 2.4.6 2.9l-2.3.3zm3.6-7.5h-2.2c-.7 0-1.2.2-1.5.9l-4.3 10.4h3.1l.6-1.7h3.8c.1.4.4 1.7.4 1.7h2.7l-2.6-11.3zm-21.9 0l-2.8 7.7-.3-1.5c-.5-1.7-2.1-3.6-3.9-4.5l2.6 9.6h3.1l4.6-11.3h-3.3z" fill="white"/>
  <path d="M13.5 15.2h-4.8l-.1.3c3.7.9 6.1 3.1 7.1 5.8l-1-5.2c-.2-.7-.7-.9-1.2-.9z" fill="#F7B600"/>
</svg>
